<svg version="1.1" viewBox="0 0 500 500" xmlns="http://www.w3.org/2000/svg">
 <path d="m249.54 0a250.06 250.06 0 0 0-249.54 250.06 250.06 250.06 0 0 0 172.2 237.63l-149.46-176.54 115.85-193.39 137.65-66.387 201.14 237.6-108.49 181.11a250.06 250.06 0 0 0 131.23-220.02 250.06 250.06 0 0 0-250.06-250.06 250.06 250.06 0 0 0-0.52149 0zm45.191 103.9-0.08789 0.04883a49.485 31.068 64.055 0 1 0.09765-0.03907l-0.00976-0.00976zm-0.56445 0.28125-17.643 8.5078 0.00781 0.01172a49.485 31.068 64.055 0 0-4.6934 2.9863l0.00195 0.00195a49.485 31.068 64.055 0 0-0.51172 0.44922 49.485 31.068 64.055 0 0-0.11328 0.10742l-0.00586-0.00781a49.485 31.068 64.055 0 0-4.1172 5.1309 49.485 31.068 64.055 0 0 12.957 65.465 49.485 31.068 64.055 0 0 38.838 15.279l0.00781 0.00976 0.11133-0.05468a49.485 31.068 64.055 0 0 0.0625-0.02735l18.037-8.7012-0.00781-0.00977a49.485 31.068 64.055 0 1-38.84-15.277 49.485 31.068 64.055 0 1-12.957-65.467 49.485 31.068 64.055 0 1 8.8652-8.4043zm-58.297 97.818-0.07812 0.04101h0.0039a49.485 31.068 64.055 0 1 0.08203-0.03125l-0.00781-0.00976zm-0.60742 0.29492-17.602 8.4902 0.00781 0.01172a49.485 31.068 64.055 0 0-4.6914 2.9863 49.485 31.068 64.055 0 1-0.00195 0 49.485 31.068 64.055 0 0-0.50977 0.45117 49.485 31.068 64.055 0 0-0.11132 0.10742l-0.00586-0.00586a49.485 31.068 64.055 0 0-4.1191 5.127 49.485 31.068 64.055 0 0 12.955 65.467 49.485 31.068 64.055 0 0 38.84 15.279l0.00781 0.00977 0.10937-0.05664a49.485 31.068 64.055 0 0 0.06446-0.02735l18.037-8.6992-0.00781-0.00976a49.485 31.068 64.055 0 1-38.842-15.279 49.485 31.068 64.055 0 1-12.955-65.467 49.485 31.068 64.055 0 1 8.8242-8.3848zm161.53 21.736-0.11328 0.05664a49.485 31.068 64.055 0 1 0.12109-0.04688l-0.00781-0.00976zm-0.58203 0.27929-17.629 8.502 0.00586 0.00976a49.485 31.068 64.055 0 0-4.6894 2.9844l-0.00781 0.00586 0.00195-0.00586a49.485 31.068 64.055 0 0-0.51367 0.45117 49.485 31.068 64.055 0 0-0.11133 0.10547 49.485 31.068 64.055 0 0-4.1172 5.1309 49.485 31.068 64.055 0 0 12.955 65.465 49.485 31.068 64.055 0 0 38.84 15.279l0.00586 0.00976 0.11328-0.05468a49.485 31.068 64.055 0 0 0.0625-0.0293l18.037-8.7012-0.00781-0.00782a49.485 31.068 64.055 0 1-38.84-15.277 49.485 31.068 64.055 0 1-12.955-65.467 49.485 31.068 64.055 0 1 8.8496-8.4004zm-58.283 97.816-0.10743 0.05273a49.485 31.068 64.055 0 1 0.11524-0.04296l-0.00781-0.00977zm-0.57032 0.27734-17.643 8.5078 0.00586 0.00976a49.485 31.068 64.055 0 0-4.6934 2.9844l-0.00195 0.00195a49.485 31.068 64.055 0 0-0.50976 0.44922 49.485 31.068 64.055 0 0-0.11329 0.10742 49.485 31.068 64.055 0 0-4.1191 5.1289 49.485 31.068 64.055 0 0 12.955 65.465 49.485 31.068 64.055 0 0 38.84 15.281l0.00585 0.00781 0.11133-0.05468a49.485 31.068 64.055 0 0 0.06446-0.0293l18.035-8.7012-0.00586-0.00782a49.485 31.068 64.055 0 1-38.84-15.279 49.485 31.068 64.055 0 1-12.957-65.465 49.485 31.068 64.055 0 1 8.8652-8.4062z" />
</svg>
