<svg width="500" height="500" version="1.1" viewBox="0 0 132 132" xmlns="http://www.w3.org/2000/svg">
 <path d="m6.58e-6 20.2v90.9h60.7v4.27h-35.1l-2.43 3.22v1.94h85.9v-1.94l-2.43-3.22h-35.1v-4.27h60.7v-90.9zm11.3 9.83h110v67h-110zm6 6.73v9.99h9.99v-9.99zm14.6 0v9.99h9.99v-9.99zm14.6 0v9.99h9.99v-9.99zm14.6 0v9.99h9.99v-9.99zm14.6 0v9.99h9.99v-9.99zm14.6 0v9.99h9.99v-9.99zm14.6 0v9.99h9.99v-9.99zm-87.7 14.6v9.99h9.99v-9.99zm14.6 0v9.99h9.99v-9.99zm14.6 0v9.99h9.99v-9.99zm14.6 0v9.99h9.99v-9.99zm14.6 0v9.99h9.99v-9.99zm14.6 0v9.99h9.99v-9.99zm14.6 0v9.99h9.99v-9.99zm-87.7 14.6v9.99h9.99v-9.99zm14.6 0v9.99h9.99v-9.99zm14.6 0v9.99h9.99v-9.99zm14.6 0v9.99h9.99v-9.99zm14.6 0v9.99h9.99v-9.99zm14.6 0v9.99h9.99v-9.99zm14.6 0v9.99h9.99v-9.99zm-87.7 14.6v9.99h9.99v-9.99zm14.6 0v9.99h9.99v-9.99zm14.6 0v9.99h9.99v-9.99zm14.6 0v9.99h9.99v-9.99zm14.6 0v9.99h9.99v-9.99zm14.6 0v9.99h9.99v-9.99zm14.6 0v9.99h9.99v-9.99zm-38.9 22.7a2.08 2.08 0 0 1 0.0011 0 2.08 2.08 0 0 1 0.0174 0 2.08 2.08 0 0 1 2.08 2.08 2.08 2.08 0 0 1-2.08 2.08 2.08 2.08 0 0 1-2.08-2.08 2.08 2.08 0 0 1 2.06-2.08z" stroke-width="0"/>
</svg>
