<svg width="200" height="200" version="1.1" viewBox="0 0 52.917 52.917"
    xmlns="http://www.w3.org/2000/svg">
    <path d="m2.5263 6.4917-2.5263 7.9256 7.9256 2.5261 2.5261-7.9254zm19.944 4.7585-9.0158 6.9527 6.9527 9.0161 9.0161-6.9527zm7.5878 14.767-6.3407 14.068 3.1204 1.4066c0.86056-0.18767 1.7156-0.40441 2.5642-0.63724 4.1255-1.1724 8.1039-2.7717 11.846-4.8424 0.55942-0.32209 1.1204-0.64817 1.675-0.98555l1.2027-2.6684zm18.362 1.4502c-0.60837-0.0029-1.0928 0.03303-1.0928 0.10896 0 0.06238 0.28837 0.19848 0.64082 0.30253 1.7408 0.51392 2.254 1.5127 1.5169 2.9528-2.1062 4.1153-13.288 9.9852-22.725 11.929-5.0009 1.0302-8.4728 0.80587-9.346-0.60411-0.42748-0.69029-0.25399-1.5713 0.54403-2.7626 0.48637-0.72606-0.13486-0.30911-1.2726 0.85419-1.3205 1.3502-1.8273 2.2029-1.8259 3.0758 1e-3 1.5556 1.4989 2.2458 4.8209 2.2219 2.6124-0.01877 6.0229-0.60336 9.6881-1.6607l1.5103-0.43556 3.4325 1.5119c1.888 0.83157 3.491 1.4894 3.5622 1.4621 0.07117-0.0273 0.7801-1.5305 1.5754-3.3405 0.79527-1.81 1.5242-3.4026 1.6199-3.5393 0.09568-0.13667 0.67796-0.50091 1.2938-0.80961 6.2622-3.139 10.823-7.1301 10.543-9.2244-0.03693-0.27533-0.16976-0.64264-0.29516-0.81628-0.31946-0.44237-1.4146-0.95627-2.3532-1.1043-0.49601-0.07821-1.2283-0.11949-1.8366-0.1223z" />
</svg>
